<svg width="17" height="17" viewBox="0 0 17 17" fill="none" xmlns="http://www.w3.org/2000/svg">
<path d="M12.8937 4.12598V10.8307C12.8937 10.9675 12.8394 11.0987 12.7427 11.1954C12.6459 11.2921 12.5148 11.3464 12.378 11.3464C12.2412 11.3464 12.11 11.2921 12.0133 11.1954C11.9166 11.0987 11.8622 10.9675 11.8622 10.8307V5.37086L4.49091 12.7428C4.39414 12.8396 4.26288 12.894 4.12602 12.894C3.98916 12.894 3.8579 12.8396 3.76113 12.7428C3.66435 12.646 3.60999 12.5148 3.60999 12.3779C3.60999 12.2411 3.66435 12.1098 3.76113 12.013L11.1331 4.64172H5.67326C5.53648 4.64172 5.40529 4.58739 5.30857 4.49066C5.21185 4.39394 5.15751 4.26276 5.15751 4.12598C5.15751 3.98919 5.21185 3.85801 5.30857 3.76129C5.40529 3.66457 5.53648 3.61023 5.67326 3.61023H12.378C12.5148 3.61023 12.6459 3.66457 12.7427 3.76129C12.8394 3.85801 12.8937 3.98919 12.8937 4.12598Z" fill="black"/>
</svg>
