<svg width="19" height="15" viewBox="0 0 19 15" fill="none" xmlns="http://www.w3.org/2000/svg">
<path d="M4.6973 4.77667L1.57538 7.37827L4.6973 9.97987C4.76113 10.031 4.81412 10.0943 4.85319 10.1661C4.89225 10.2379 4.9166 10.3168 4.9248 10.3982C4.93301 10.4795 4.92491 10.5617 4.90098 10.6398C4.87705 10.718 4.83776 10.7906 4.78543 10.8535C4.73309 10.9163 4.66876 10.968 4.59618 11.0057C4.52361 11.0433 4.44426 11.0661 4.36277 11.0727C4.28128 11.0793 4.19929 11.0696 4.12159 11.0442C4.0439 11.0187 3.97206 10.978 3.91029 10.9244L0.221163 7.85017C0.15194 7.79247 0.0962478 7.72025 0.0580292 7.63864C0.0198105 7.55703 0 7.46801 0 7.37789C0 7.28777 0.0198105 7.19875 0.0580292 7.11714C0.0962478 7.03552 0.15194 6.96331 0.221163 6.9056L3.91029 3.83133C4.03565 3.72697 4.19733 3.67668 4.35977 3.69152C4.52221 3.70637 4.6721 3.78513 4.77647 3.91049C4.88083 4.03585 4.93112 4.19754 4.91628 4.35998C4.90143 4.52242 4.82266 4.67231 4.6973 4.77667ZM18.2241 6.9056L14.535 3.83133C14.4729 3.77966 14.4013 3.74071 14.3241 3.71672C14.247 3.69273 14.1659 3.68417 14.0855 3.69152C14.0051 3.69887 13.9269 3.72199 13.8554 3.75957C13.7839 3.79714 13.7205 3.84842 13.6688 3.91049C13.5644 4.03585 13.5141 4.19754 13.529 4.35998C13.5438 4.52242 13.6226 4.67231 13.748 4.77667L16.8699 7.37827L13.748 9.97987C13.6841 10.031 13.6311 10.0943 13.5921 10.1661C13.553 10.2379 13.5287 10.3168 13.5205 10.3982C13.5123 10.4795 13.5204 10.5617 13.5443 10.6398C13.5682 10.718 13.6075 10.7906 13.6598 10.8535C13.7122 10.9163 13.7765 10.968 13.8491 11.0057C13.9217 11.0433 14.001 11.0661 14.0825 11.0727C14.164 11.0793 14.246 11.0696 14.3237 11.0442C14.4014 11.0187 14.4732 10.978 14.535 10.9244L18.2241 7.85017C18.2933 7.79247 18.349 7.72025 18.3872 7.63864C18.4255 7.55703 18.4453 7.46801 18.4453 7.37789C18.4453 7.28777 18.4255 7.19875 18.3872 7.11714C18.349 7.03552 18.2933 6.96331 18.2241 6.9056ZM11.8919 0.0369116C11.816 0.0093556 11.7354 -0.00298061 11.6547 0.000607319C11.5741 0.00419525 11.4949 0.0236372 11.4217 0.0578227C11.3486 0.0920083 11.2829 0.140268 11.2284 0.199846C11.1739 0.259425 11.1316 0.329155 11.1041 0.405056L6.18525 13.9319C6.15758 14.0078 6.14515 14.0885 6.14868 14.1692C6.15221 14.25 6.17162 14.3292 6.20582 14.4025C6.24001 14.4757 6.28831 14.5415 6.34795 14.596C6.40759 14.6506 6.4774 14.6929 6.55339 14.7204C6.62076 14.7443 6.69172 14.7566 6.76321 14.7565C6.88948 14.7565 7.01269 14.7177 7.1161 14.6452C7.2195 14.5727 7.29809 14.4702 7.34118 14.3515L12.26 0.824694C12.2876 0.748795 12.2999 0.668211 12.2963 0.587545C12.2927 0.506878 12.2733 0.427708 12.2391 0.354555C12.2049 0.281402 12.1567 0.215699 12.0971 0.161198C12.0375 0.106696 11.9678 0.0644637 11.8919 0.0369116Z" fill="#96EA63"/>
</svg>
