<svg width="16" height="18" viewBox="0 0 16 18" fill="none" xmlns="http://www.w3.org/2000/svg">
<path d="M15.3468 3.85223L8.58337 0.151572C8.40252 0.0521371 8.19949 0 7.99311 0C7.78673 0 7.58369 0.0521371 7.40285 0.151572L0.639448 3.85453C0.446299 3.96021 0.285064 4.11582 0.172583 4.30509C0.0601022 4.49436 0.000499767 4.71036 0 4.93053V12.2811C0.000499767 12.5013 0.0601022 12.7173 0.172583 12.9066C0.285064 13.0958 0.446299 13.2514 0.639448 13.3571L7.40285 17.0593C7.58356 17.1591 7.78664 17.2115 7.99311 17.2115C8.19957 17.2115 8.40266 17.1591 8.58337 17.0593L15.3468 13.3571C15.5399 13.2514 15.7011 13.0958 15.8136 12.9066C15.9261 12.7173 15.9857 12.5013 15.9862 12.2811V4.93053C15.9861 4.70996 15.9267 4.49348 15.8142 4.30377C15.7017 4.11406 15.5403 3.9581 15.3468 3.85223ZM11.0674 10.4504V14.3001L8.60796 15.6467V8.97012L14.7565 5.60379V8.06321L11.3871 9.90777C11.2898 9.96099 11.2088 10.0395 11.1525 10.135C11.0962 10.2306 11.0668 10.3395 11.0674 10.4504ZM4.59911 9.91238L1.22971 8.06782V5.6084L7.37825 8.97473V15.6513L4.91883 14.3001V10.4504C4.91858 10.3403 4.88878 10.2323 4.83254 10.1377C4.7763 10.043 4.69568 9.96523 4.59911 9.91238ZM4.54531 3.11748L7.69644 4.84291C7.78693 4.89242 7.88842 4.91837 7.99157 4.91837C8.09472 4.91837 8.19621 4.89242 8.2867 4.84291L11.4378 3.11748L14.0879 4.56776L7.99311 7.90489L1.89529 4.56623L4.54531 3.11748ZM7.99311 1.22757L10.1605 2.41424L7.99311 3.60167L5.82575 2.415L7.99311 1.22757ZM1.22971 9.46815L3.68913 10.8147V13.6269L1.22971 12.2811V9.46815ZM12.2971 13.6269V10.8147L14.7565 9.46815V12.2811L12.2971 13.6269Z" fill="#96EA63"/>
</svg>
