<svg width="14" height="16" viewBox="0 0 14 16" fill="none" xmlns="http://www.w3.org/2000/svg">
<path d="M11.5345 2.25075C11.2426 2.25034 10.9542 2.31546 10.6908 2.4413V1.9695C10.691 1.50027 10.5235 1.04641 10.2187 0.689693C9.91383 0.332981 9.4916 0.0968806 9.02807 0.0239377C8.56454 -0.0490052 8.0902 0.0460065 7.69053 0.291851C7.29086 0.537696 6.99214 0.918207 6.84819 1.36481C6.54838 1.20219 6.21147 1.12025 5.87046 1.12702C5.52946 1.13379 5.19606 1.22903 4.90293 1.40342C4.60981 1.5778 4.36702 1.82535 4.19835 2.1218C4.02968 2.41824 3.94093 2.75343 3.94077 3.0945V7.5945L3.67218 7.16349C3.41129 6.71327 2.98278 6.38464 2.48031 6.24944C1.97784 6.11423 1.44228 6.18344 0.990694 6.44195C0.539105 6.70045 0.208217 7.12721 0.0703579 7.62896C-0.0675015 8.13071 -0.00112049 8.66663 0.254991 9.11958C1.37999 11.494 2.28913 13.178 3.32905 14.2306C4.37952 15.2965 5.57202 15.7508 7.31577 15.7508C8.95623 15.7489 10.529 15.0964 11.6889 13.9364C12.8489 12.7764 13.5014 11.2037 13.5033 9.56325V4.2195C13.5033 3.69736 13.2959 3.1966 12.9266 2.82739C12.5574 2.45817 12.0567 2.25075 11.5345 2.25075ZM12.3783 9.56325C12.3768 10.9055 11.8429 12.1923 10.8939 13.1413C9.94478 14.0904 8.65797 14.6243 7.31577 14.6258C5.8828 14.6258 4.9596 14.2826 4.12851 13.441C3.19827 12.4981 2.34187 10.8992 1.26187 8.61966C1.25554 8.60571 1.2485 8.5921 1.24077 8.57888C1.12888 8.38503 1.09858 8.15468 1.15654 7.93849C1.21449 7.7223 1.35595 7.53799 1.5498 7.4261C1.74364 7.31422 1.974 7.28391 2.19018 7.34187C2.40637 7.39982 2.59068 7.54128 2.70257 7.73513C2.70543 7.74076 2.70872 7.74617 2.71241 7.7513L4.02515 9.86067C4.08963 9.96473 4.18631 10.0449 4.30049 10.089C4.41468 10.1332 4.54015 10.1388 4.65785 10.1052C4.77556 10.0716 4.87907 10.0004 4.95269 9.90263C5.02631 9.80482 5.06601 9.68567 5.06577 9.56325V3.0945C5.06577 2.87073 5.15467 2.65611 5.3129 2.49788C5.47114 2.33965 5.68575 2.25075 5.90952 2.25075C6.1333 2.25075 6.34791 2.33965 6.50614 2.49788C6.66438 2.65611 6.75327 2.87073 6.75327 3.0945V7.31325C6.75327 7.46244 6.81254 7.60551 6.91803 7.711C7.02351 7.81649 7.16659 7.87575 7.31577 7.87575C7.46496 7.87575 7.60803 7.81649 7.71352 7.711C7.81901 7.60551 7.87827 7.46244 7.87827 7.31325V1.9695C7.87827 1.74573 7.96717 1.53111 8.1254 1.37288C8.28364 1.21465 8.49825 1.12575 8.72202 1.12575C8.9458 1.12575 9.16041 1.21465 9.31864 1.37288C9.47688 1.53111 9.56577 1.74573 9.56577 1.9695V7.31325C9.56577 7.46244 9.62504 7.60551 9.73052 7.711C9.83601 7.81649 9.97909 7.87575 10.1283 7.87575C10.2775 7.87575 10.4205 7.81649 10.526 7.711C10.6315 7.60551 10.6908 7.46244 10.6908 7.31325V4.2195C10.6908 3.99573 10.7797 3.78111 10.9379 3.62288C11.0961 3.46465 11.3107 3.37575 11.5345 3.37575C11.7583 3.37575 11.9729 3.46465 12.1311 3.62288C12.2894 3.78111 12.3783 3.99573 12.3783 4.2195V9.56325Z" fill="#E8E9EA"/>
</svg>
