<svg width="17" height="15" viewBox="0 0 17 15" fill="none" xmlns="http://www.w3.org/2000/svg">
<path d="M15.3462 0H1.27885C0.939675 0 0.614395 0.129587 0.374565 0.360254C0.134735 0.590921 0 0.903773 0 1.22998V11.6849C0 12.0111 0.134735 12.3239 0.374565 12.5546C0.614395 12.7853 0.939675 12.9148 1.27885 12.9148H2.55769V14.1448C2.55769 14.3079 2.62506 14.4644 2.74498 14.5797C2.86489 14.695 3.02753 14.7598 3.19712 14.7598C3.3667 14.7598 3.52934 14.695 3.64926 14.5797C3.76917 14.4644 3.83654 14.3079 3.83654 14.1448V12.9148H12.7885V14.1448C12.7885 14.3079 12.8558 14.4644 12.9757 14.5797C13.0957 14.695 13.2583 14.7598 13.4279 14.7598C13.5975 14.7598 13.7601 14.695 13.88 14.5797C13.9999 14.4644 14.0673 14.3079 14.0673 14.1448V12.9148H15.3462C15.6853 12.9148 16.0106 12.7853 16.2504 12.5546C16.4903 12.3239 16.625 12.0111 16.625 11.6849V1.22998C16.625 0.903773 16.4903 0.590921 16.2504 0.360254C16.0106 0.129587 15.6853 0 15.3462 0ZM14.7067 7.37991H12.396C12.2388 8.04329 11.833 8.62773 11.2562 9.02159C10.6793 9.41544 9.97182 9.59111 9.26883 9.51503C8.56584 9.43895 7.91662 9.11647 7.44519 8.60917C6.97376 8.10187 6.71315 7.44531 6.71315 6.76492C6.71315 6.08452 6.97376 5.42797 7.44519 4.92067C7.91662 4.41337 8.56584 4.09088 9.26883 4.0148C9.97182 3.93873 10.6793 4.11439 11.2562 4.50825C11.833 4.9021 12.2388 5.48654 12.396 6.14992H14.7067C14.8763 6.14992 15.039 6.21472 15.1589 6.33005C15.2788 6.44538 15.3462 6.60181 15.3462 6.76492C15.3462 6.92802 15.2788 7.08445 15.1589 7.19978C15.039 7.31512 14.8763 7.37991 14.7067 7.37991ZM11.1899 6.76492C11.1899 7.069 11.0962 7.36626 10.9205 7.6191C10.7448 7.87193 10.4952 8.069 10.2031 8.18536C9.91099 8.30173 9.58957 8.33218 9.27948 8.27286C8.96939 8.21353 8.68456 8.0671 8.46099 7.85208C8.23743 7.63706 8.08519 7.36311 8.0235 7.06486C7.96182 6.76662 7.99348 6.45749 8.11447 6.17655C8.23546 5.89561 8.44035 5.65549 8.70323 5.48655C8.96612 5.31761 9.27518 5.22744 9.59135 5.22744C9.80127 5.22744 10.0091 5.2672 10.2031 5.34447C10.397 5.42173 10.5733 5.53499 10.7217 5.67775C10.8701 5.82052 10.9879 5.99001 11.0682 6.17655C11.1486 6.36308 11.1899 6.56301 11.1899 6.76492Z" fill="#96EA63"/>
</svg>
