<svg width="16" height="15" viewBox="0 0 16 15" fill="none" xmlns="http://www.w3.org/2000/svg">
<path d="M14.7565 0H1.22971C0.90357 0 0.590788 0.129558 0.360173 0.360173C0.129558 0.590788 0 0.90357 0 1.22971V11.6822C0 12.0084 0.129558 12.3212 0.360173 12.5518C0.590788 12.7824 0.90357 12.9119 1.22971 12.9119H2.45942V14.1416C2.45942 14.3047 2.5242 14.4611 2.6395 14.5764C2.75481 14.6917 2.9112 14.7565 3.07427 14.7565C3.23734 14.7565 3.39373 14.6917 3.50904 14.5764C3.62435 14.4611 3.68913 14.3047 3.68913 14.1416V12.9119H12.2971V14.1416C12.2971 14.3047 12.3619 14.4611 12.4772 14.5764C12.5925 14.6917 12.7489 14.7565 12.9119 14.7565C13.075 14.7565 13.2314 14.6917 13.3467 14.5764C13.462 14.4611 13.5268 14.3047 13.5268 14.1416V12.9119H14.7565C15.0826 12.9119 15.3954 12.7824 15.626 12.5518C15.8567 12.3212 15.9862 12.0084 15.9862 11.6822V1.22971C15.9862 0.90357 15.8567 0.590788 15.626 0.360173C15.3954 0.129558 15.0826 0 14.7565 0ZM14.7565 11.6822H1.22971V1.22971H14.7565V6.14854H13.4745C13.3204 5.23647 12.8292 4.41559 12.0983 3.84859C11.3675 3.28159 10.4503 3.00984 9.5285 3.08719C8.60673 3.16455 7.74765 3.58536 7.12152 4.26625C6.49538 4.94713 6.14788 5.83839 6.14788 6.7634C6.14788 7.68841 6.49538 8.57967 7.12152 9.26055C7.74765 9.94143 8.60673 10.3622 9.5285 10.4396C10.4503 10.517 11.3675 10.2452 12.0983 9.6782C12.8292 9.1112 13.3204 8.29033 13.4745 7.37825H14.7565V11.6822ZM10.9014 6.14854C10.766 5.91411 10.5571 5.73089 10.307 5.6273C10.0569 5.5237 9.77961 5.50553 9.51814 5.57559C9.25666 5.64565 9.02561 5.80004 8.86082 6.0148C8.69602 6.22956 8.6067 6.4927 8.6067 6.7634C8.6067 7.0341 8.69602 7.29724 8.86082 7.512C9.02561 7.72676 9.25666 7.88114 9.51814 7.95121C9.77961 8.02127 10.0569 8.00309 10.307 7.8995C10.5571 7.79591 10.766 7.61269 10.9014 7.37825H12.2202C12.0706 7.95785 11.7147 8.46297 11.2192 8.79894C10.7238 9.1349 10.1228 9.27864 9.52901 9.20321C8.93518 9.12779 8.38924 8.83837 7.99352 8.38922C7.59781 7.94006 7.37949 7.362 7.37949 6.7634C7.37949 6.16479 7.59781 5.58673 7.99352 5.13758C8.38924 4.68843 8.93518 4.39901 9.52901 4.32358C10.1228 4.24816 10.7238 4.3919 11.2192 4.72786C11.7147 5.06382 12.0706 5.56895 12.2202 6.14854H10.9014Z" fill="#E8E9EA"/>
</svg>
