<svg width="16" height="12" viewBox="0 0 16 12" fill="none" xmlns="http://www.w3.org/2000/svg">
<path d="M14.4541 0H0.578164C0.424825 0 0.277767 0.0609136 0.16934 0.16934C0.0609135 0.277767 0 0.424825 0 0.578164V10.407C0 10.7136 0.121827 11.0077 0.338681 11.2246C0.555534 11.4415 0.849651 11.5633 1.15633 11.5633H13.8759C14.1826 11.5633 14.4767 11.4415 14.6936 11.2246C14.9104 11.0077 15.0323 10.7136 15.0323 10.407V0.578164C15.0323 0.424825 14.9714 0.277767 14.8629 0.16934C14.7545 0.0609136 14.6074 0 14.4541 0ZM12.9675 1.15633L7.51613 6.15383L2.06477 1.15633H12.9675ZM13.8759 10.407H1.15633V1.89276L7.12515 7.36436C7.23181 7.46228 7.37134 7.51661 7.51613 7.51661C7.66093 7.51661 7.80045 7.46228 7.90712 7.36436L13.8759 1.89276V10.407Z" fill="#96EA63"/>
</svg>
