<svg width="16" height="12" viewBox="0 0 16 12" fill="none" xmlns="http://www.w3.org/2000/svg">
<path d="M3.53543 6.29197C3.53714 6.32611 3.53189 6.36025 3.51999 6.3923C3.50809 6.42435 3.48979 6.45365 3.46622 6.4784C3.44264 6.50316 3.41427 6.52286 3.38283 6.53631C3.3514 6.54976 3.31756 6.55667 3.28337 6.55663H0.503144C0.389361 6.5568 0.278865 6.51848 0.189626 6.44789C0.100387 6.3773 0.0376532 6.27859 0.0116254 6.16782C-0.00458153 6.09201 -0.0038344 6.01355 0.0138133 5.93806C0.031461 5.86256 0.0655731 5.7919 0.11371 5.73113C0.558477 5.14129 1.1486 4.67688 1.82646 4.38323C1.52886 4.11189 1.3006 3.77319 1.16082 3.3955C1.02103 3.0178 0.973782 2.61211 1.02303 2.21239C1.07227 1.81268 1.21658 1.43059 1.44386 1.09812C1.67114 0.765644 1.97478 0.492472 2.32934 0.301478C2.68391 0.110485 3.07907 0.00723187 3.48175 0.000366343C3.88442 -0.00649918 4.28288 0.0832228 4.64375 0.262018C5.00462 0.440813 5.3174 0.703476 5.55588 1.02801C5.79436 1.35254 5.95161 1.72949 6.01445 2.12729C6.02256 2.18079 6.01298 2.23547 5.98716 2.28301C5.96134 2.33056 5.92069 2.36837 5.87141 2.3907C5.17218 2.71395 4.58001 3.23046 4.16477 3.87929C3.74952 4.52811 3.52853 5.28218 3.52787 6.05251C3.52787 6.13317 3.52787 6.21257 3.53543 6.29197ZM15.0042 5.7305C14.5605 5.14135 13.9717 4.67719 13.2952 4.38323C13.5928 4.11189 13.8211 3.77319 13.9609 3.3955C14.1007 3.0178 14.1479 2.61211 14.0987 2.21239C14.0494 1.81268 13.9051 1.43059 13.6778 1.09812C13.4505 0.765644 13.1469 0.492472 12.7923 0.301478C12.4378 0.110485 12.0426 0.00723187 11.6399 0.000366343C11.2373 -0.00649918 10.8388 0.0832228 10.4779 0.262018C10.1171 0.440813 9.80429 0.703476 9.56581 1.02801C9.32732 1.35254 9.17008 1.72949 9.10723 2.12729C9.09912 2.18079 9.1087 2.23547 9.13452 2.28301C9.16035 2.33056 9.20099 2.36837 9.25028 2.3907C9.9495 2.71395 10.5417 3.23046 10.9569 3.87929C11.3722 4.52811 11.5932 5.28218 11.5938 6.05251C11.5938 6.13317 11.5938 6.21257 11.5863 6.29197C11.5845 6.32611 11.5898 6.36025 11.6017 6.3923C11.6136 6.42435 11.6319 6.45365 11.6555 6.4784C11.679 6.50316 11.7074 6.52286 11.7389 6.53631C11.7703 6.54976 11.8041 6.55667 11.8383 6.55663H14.6185C14.7323 6.5568 14.8428 6.51848 14.9321 6.44789C15.0213 6.3773 15.084 6.27859 15.1101 6.16782C15.1264 6.09187 15.1256 6.01325 15.1078 5.93762C15.0901 5.86199 15.0558 5.79125 15.0073 5.7305H15.0042ZM9.39584 8.4515C9.89779 8.06708 10.2667 7.53504 10.4506 6.93016C10.6346 6.32527 10.6244 5.67795 10.4214 5.07917C10.2185 4.48039 9.83298 3.96025 9.31916 3.59187C8.80533 3.22348 8.18898 3.02537 7.55675 3.02537C6.92451 3.02537 6.30816 3.22348 5.79434 3.59187C5.28051 3.96025 4.89503 4.48039 4.69209 5.07917C4.48914 5.67795 4.47893 6.32527 4.66288 6.93016C4.84683 7.53504 5.2157 8.06708 5.71765 8.4515C4.82695 8.83742 4.0832 9.49836 3.5953 10.3375C3.55105 10.4142 3.52775 10.5011 3.52776 10.5896C3.52776 10.6781 3.55107 10.7651 3.59533 10.8417C3.63959 10.9183 3.70324 10.982 3.77989 11.0262C3.85654 11.0705 3.94349 11.0937 4.03199 11.0937H11.0897C11.1782 11.0937 11.2651 11.0705 11.3418 11.0262C11.4184 10.982 11.4821 10.9183 11.5264 10.8417C11.5706 10.7651 11.5939 10.6781 11.5939 10.5896C11.5939 10.5011 11.5706 10.4142 11.5264 10.3375C11.0374 9.49781 10.2923 8.83682 9.40026 8.4515H9.39584Z" fill="#96EA63"/>
</svg>
