<svg width="20" height="13" viewBox="0 0 20 13" fill="none" xmlns="http://www.w3.org/2000/svg">
<path d="M8.84487 8.44997C9.66893 7.90136 10.2946 7.10212 10.6293 6.17044C10.964 5.23876 10.9899 4.2241 10.7034 3.27651C10.4168 2.32892 9.83287 1.49871 9.03796 0.908649C8.24305 0.318587 7.27936 0 6.28939 0C5.29941 0 4.33572 0.318587 3.54081 0.908649C2.74591 1.49871 2.16199 2.32892 1.87542 3.27651C1.58884 4.2241 1.61482 5.23876 1.94951 6.17044C2.2842 7.10212 2.90984 7.90136 3.7339 8.44997C2.24325 8.99937 0.970208 10.016 0.10472 11.3482C0.0592324 11.4158 0.027637 11.4918 0.0117698 11.5717C-0.0040973 11.6517 -0.00391965 11.7339 0.0122925 11.8138C0.0285046 11.8937 0.0604277 11.9695 0.106206 12.0369C0.151985 12.1043 0.210706 12.1619 0.278956 12.2065C0.347206 12.251 0.423623 12.2815 0.503766 12.2962C0.583909 12.3109 0.666179 12.3096 0.745794 12.2922C0.825409 12.2749 0.900781 12.2419 0.967528 12.1951C1.03428 12.1484 1.09107 12.0888 1.1346 12.02C1.69288 11.1613 2.45681 10.4557 3.35702 9.96726C4.25723 9.4788 5.2652 9.22296 6.28939 9.22296C7.31358 9.22296 8.32154 9.4788 9.22175 9.96726C10.122 10.4557 10.8859 11.1613 11.4442 12.02C11.5344 12.154 11.6737 12.2472 11.832 12.2793C11.9903 12.3114 12.1549 12.28 12.2902 12.1917C12.4255 12.1035 12.5207 11.9655 12.5551 11.8077C12.5895 11.6498 12.5604 11.4848 12.4741 11.3482C11.6086 10.016 10.3355 8.99937 8.84487 8.44997ZM2.90769 4.61328C2.90769 3.94444 3.10602 3.29062 3.47761 2.73451C3.84919 2.17839 4.37734 1.74495 4.99527 1.489C5.61319 1.23304 6.29314 1.16607 6.94912 1.29656C7.60511 1.42704 8.20767 1.74912 8.68061 2.22206C9.15355 2.695 9.47562 3.29756 9.60611 3.95354C9.73659 4.60953 9.66962 5.28947 9.41367 5.9074C9.15771 6.52532 8.72427 7.05347 8.16816 7.42506C7.61204 7.79664 6.95822 7.99498 6.28939 7.99498C5.39282 7.99396 4.53326 7.63735 3.89929 7.00338C3.26532 6.36941 2.9087 5.50985 2.90769 4.61328ZM19.0584 12.199C18.9218 12.2881 18.7554 12.3193 18.5959 12.2857C18.4363 12.2521 18.2967 12.1565 18.2076 12.02C17.65 11.1608 16.8861 10.4549 15.9857 9.96664C15.0853 9.47839 14.077 9.22332 13.0528 9.22469C12.8897 9.22469 12.7333 9.15991 12.618 9.0446C12.5027 8.92929 12.4379 8.7729 12.4379 8.60983C12.4379 8.44676 12.5027 8.29037 12.618 8.17506C12.7333 8.05976 12.8897 7.99498 13.0528 7.99498C13.5508 7.99451 14.0426 7.88405 14.4929 7.6715C14.9433 7.45895 15.3412 7.14955 15.6581 6.7654C15.975 6.38126 16.2032 5.93186 16.3263 5.44931C16.4494 4.96676 16.4645 4.46297 16.3703 3.97394C16.2762 3.48492 16.0752 3.02272 15.7817 2.62038C15.4882 2.21804 15.1095 1.88548 14.6725 1.64648C14.2356 1.40747 13.7513 1.26792 13.2542 1.23778C12.7571 1.20764 12.2595 1.28767 11.7969 1.47214C11.7215 1.50475 11.6403 1.5219 11.5582 1.5226C11.476 1.52329 11.3945 1.50751 11.3186 1.47618C11.2426 1.44486 11.1737 1.39863 11.1159 1.34022C11.0581 1.28181 11.0126 1.21241 10.9821 1.13612C10.9516 1.05982 10.9367 0.97819 10.9382 0.896037C10.9398 0.813884 10.9578 0.732879 10.9912 0.657807C11.0246 0.582735 11.0727 0.51512 11.1327 0.458957C11.1927 0.402795 11.2633 0.359223 11.3404 0.330818C12.3991 -0.0913939 13.5766 -0.106588 14.6458 0.288168C15.715 0.682923 16.6002 1.45966 17.1305 2.46853C17.6608 3.47739 17.7987 4.64691 17.5176 5.75146C17.2365 6.85602 16.5563 7.81734 15.6083 8.44997C17.0989 8.99937 18.372 10.016 19.2374 11.3482C19.3265 11.4848 19.3577 11.6512 19.3241 11.8107C19.2905 11.9703 19.1949 12.11 19.0584 12.199Z" fill="#E8E9EA"/>
</svg>
