<svg width="16" height="16" viewBox="0 0 16 16" fill="none" xmlns="http://www.w3.org/2000/svg">
<path d="M15.3591 1.16418C15.3409 0.864386 15.2135 0.581621 15.0012 0.369241C14.7888 0.156861 14.506 0.029551 14.2062 0.0113321C13.2394 -0.0463105 10.7684 0.0420747 8.71788 2.09185L8.35281 2.46153H3.86975C3.70764 2.46061 3.54697 2.49194 3.39708 2.55369C3.24719 2.61544 3.11108 2.70638 2.99666 2.82122L0.360469 5.45894C0.198799 5.6205 0.0853544 5.82392 0.0328661 6.04637C-0.0196222 6.26882 -0.00907653 6.5015 0.0633196 6.71828C0.135716 6.93507 0.267097 7.1274 0.442719 7.27367C0.618341 7.41994 0.831253 7.51438 1.05756 7.54637L4.01424 7.95909L7.41208 11.3569L7.8248 14.3152C7.85654 14.5415 7.95095 14.7544 8.09736 14.9299C8.24377 15.1054 8.43634 15.2364 8.65332 15.3081C8.77969 15.3504 8.91205 15.3719 9.04529 15.3719C9.20662 15.3722 9.36642 15.3406 9.51547 15.2789C9.66453 15.2171 9.79989 15.1265 9.91377 15.0122L12.5515 12.3761C12.6663 12.2616 12.7573 12.1255 12.819 11.9756C12.8808 11.8257 12.9121 11.6651 12.9112 11.503V7.0199L13.2778 6.6533C15.3283 4.60276 15.4167 2.13181 15.3591 1.16418ZM3.86975 3.69124H7.1231L4.08495 6.72862L1.22895 6.3305L3.86975 3.69124ZM9.58867 2.96494C10.1795 2.37048 10.8903 1.90893 11.6738 1.61112C12.4572 1.31331 13.2952 1.18609 14.1317 1.23797C14.1855 2.07492 14.0597 2.91371 13.7624 3.69797C13.4652 4.48223 13.0036 5.19378 12.4085 5.78481L7.99235 10.1995L5.17324 7.38036L9.58867 2.96494ZM11.6815 11.503L9.04298 14.1438L8.64409 11.287L11.6815 8.24961V11.503ZM5.98177 12.2331C5.63592 12.9909 4.47922 14.7586 1.22895 14.7586C1.06588 14.7586 0.909491 14.6938 0.794183 14.5785C0.678876 14.4632 0.614097 14.3068 0.614097 14.1438C0.614097 10.8935 2.3818 9.73679 3.13961 9.39017C3.21309 9.35666 3.29245 9.33795 3.37315 9.33511C3.45386 9.33227 3.53434 9.34535 3.60999 9.37362C3.68564 9.40188 3.75498 9.44476 3.81405 9.49982C3.87313 9.55488 3.92078 9.62104 3.95429 9.69452C3.9878 9.768 4.00651 9.84735 4.00935 9.92806C4.01219 10.0088 3.9991 10.0892 3.97084 10.1649C3.94258 10.2405 3.8997 10.3099 3.84464 10.369C3.78957 10.428 3.72342 10.4757 3.64994 10.5092C3.15575 10.7344 2.06515 11.4592 1.87301 13.4997C3.91356 13.3076 4.63986 12.217 4.86351 11.7228C4.89702 11.6493 4.94467 11.5831 5.00375 11.5281C5.06282 11.473 5.13217 11.4301 5.20782 11.4019C5.28347 11.3736 5.36394 11.3605 5.44465 11.3634C5.52536 11.3662 5.60471 11.3849 5.67819 11.4184C5.75167 11.4519 5.81783 11.4996 5.87289 11.5587C5.92795 11.6177 5.97083 11.6871 5.99909 11.7627C6.02736 11.8384 6.04044 11.9189 6.0376 11.9996C6.03476 12.0803 6.01605 12.1596 5.98254 12.2331H5.98177Z" fill="#96EA63"/>
</svg>
