<svg width="16" height="16" viewBox="0 0 16 16" fill="none" xmlns="http://www.w3.org/2000/svg">
<path d="M15.125 0.6875V4.8125C15.125 4.99484 15.0526 5.1697 14.9236 5.29864C14.7947 5.42757 14.6198 5.5 14.4375 5.5C14.2552 5.5 14.0803 5.42757 13.9514 5.29864C13.8224 5.1697 13.75 4.99484 13.75 4.8125V2.34695L9.42391 6.67391C9.2949 6.80291 9.11994 6.87538 8.9375 6.87538C8.75506 6.87538 8.5801 6.80291 8.45109 6.67391C8.32209 6.5449 8.24962 6.36994 8.24962 6.1875C8.24962 6.00506 8.32209 5.8301 8.45109 5.70109L12.778 1.375H10.3125C10.1302 1.375 9.95529 1.30257 9.82636 1.17364C9.69743 1.0447 9.625 0.869836 9.625 0.6875C9.625 0.505164 9.69743 0.330295 9.82636 0.201364C9.95529 0.072433 10.1302 0 10.3125 0H14.4375C14.6198 0 14.7947 0.072433 14.9236 0.201364C15.0526 0.330295 15.125 0.505164 15.125 0.6875ZM5.70109 8.45109L1.375 12.778V10.3125C1.375 10.1302 1.30257 9.95529 1.17364 9.82636C1.0447 9.69743 0.869836 9.625 0.6875 9.625C0.505164 9.625 0.330295 9.69743 0.201364 9.82636C0.072433 9.95529 0 10.1302 0 10.3125V14.4375C0 14.6198 0.072433 14.7947 0.201364 14.9236C0.330295 15.0526 0.505164 15.125 0.6875 15.125H4.8125C4.99484 15.125 5.1697 15.0526 5.29864 14.9236C5.42757 14.7947 5.5 14.6198 5.5 14.4375C5.5 14.2552 5.42757 14.0803 5.29864 13.9514C5.1697 13.8224 4.99484 13.75 4.8125 13.75H2.34695L6.67391 9.42391C6.80291 9.2949 6.87538 9.11994 6.87538 8.9375C6.87538 8.75506 6.80291 8.5801 6.67391 8.45109C6.5449 8.32209 6.36994 8.24962 6.1875 8.24962C6.00506 8.24962 5.8301 8.32209 5.70109 8.45109Z" fill="#E8E9EA"/>
</svg>
