<svg width="16" height="14" viewBox="0 0 16 14" fill="none" xmlns="http://www.w3.org/2000/svg">
<path d="M14.7565 0H1.22971C0.90357 0 0.590788 0.129558 0.360173 0.360173C0.129558 0.590788 0 0.90357 0 1.22971V12.2971C0 12.6232 0.129558 12.936 0.360173 13.1666C0.590788 13.3972 0.90357 13.5268 1.22971 13.5268H14.7565C15.0826 13.5268 15.3954 13.3972 15.626 13.1666C15.8567 12.936 15.9862 12.6232 15.9862 12.2971V1.22971C15.9862 0.90357 15.8567 0.590788 15.626 0.360173C15.3954 0.129558 15.0826 0 14.7565 0ZM14.7565 12.2971H1.22971V1.22971H14.7565V12.2971ZM4.30398 3.3817C4.30398 3.56411 4.24989 3.74242 4.14855 3.89409C4.04721 4.04576 3.90317 4.16397 3.73464 4.23378C3.56612 4.30358 3.38068 4.32185 3.20177 4.28626C3.02287 4.25067 2.85853 4.16283 2.72955 4.03385C2.60056 3.90487 2.51273 3.74053 2.47714 3.56163C2.44155 3.38272 2.45982 3.19728 2.52962 3.02876C2.59943 2.86023 2.71764 2.71619 2.86931 2.61485C3.02098 2.51351 3.19929 2.45942 3.3817 2.45942C3.6263 2.45942 3.86089 2.55659 4.03385 2.72955C4.20681 2.90251 4.30398 3.13709 4.30398 3.3817ZM7.37825 3.3817C7.37825 3.56411 7.32416 3.74242 7.22282 3.89409C7.12148 4.04576 6.97744 4.16397 6.80891 4.23378C6.64039 4.30358 6.45495 4.32185 6.27604 4.28626C6.09714 4.25067 5.9328 4.16283 5.80382 4.03385C5.67484 3.90487 5.587 3.74053 5.55141 3.56163C5.51582 3.38272 5.53409 3.19728 5.60389 3.02876C5.6737 2.86023 5.79191 2.71619 5.94358 2.61485C6.09525 2.51351 6.27356 2.45942 6.45597 2.45942C6.70057 2.45942 6.93516 2.55659 7.10812 2.72955C7.28108 2.90251 7.37825 3.13709 7.37825 3.3817Z" fill="#E8E9EA"/>
</svg>
