<svg width="22" height="23" viewBox="0 0 22 23" fill="none" xmlns="http://www.w3.org/2000/svg">
<g filter="url(#filter0_d_195_184)">
<path d="M14.7566 5.71198H3.07241C2.76253 5.71198 2.46534 5.83508 2.24621 6.0542C2.02709 6.27332 1.90399 6.57051 1.90399 6.8804V10.9699C1.90399 14.8198 3.76762 17.153 5.33112 18.4324C7.0151 19.8097 8.69032 20.2778 8.76335 20.2968C8.86376 20.3241 8.96965 20.3241 9.07006 20.2968C9.14309 20.2778 10.8161 19.8097 12.5023 18.4324C14.0614 17.153 15.925 14.8198 15.925 10.9699V6.8804C15.925 6.57051 15.8019 6.27332 15.5828 6.0542C15.3637 5.83508 15.0665 5.71198 14.7566 5.71198ZM8.91451 19.1211C7.88134 18.7603 6.9194 18.2212 6.07233 17.5284C4.37447 16.1394 3.39154 14.3291 3.13814 12.1383H8.91451V6.8804H14.7566V10.9699C14.7568 11.3603 14.7349 11.7504 14.6909 12.1383H8.91451V19.1211Z" fill="#96EA63"/>
</g>
<defs>
<filter id="filter0_d_195_184" x="-8.82149e-06" y="-2.64645e-05" width="21.6371" height="22.2213" filterUnits="userSpaceOnUse" color-interpolation-filters="sRGB">
<feFlood flood-opacity="0" result="BackgroundImageFix"/>
<feColorMatrix in="SourceAlpha" type="matrix" values="0 0 0 0 0 0 0 0 0 0 0 0 0 0 0 0 0 0 127 0" result="hardAlpha"/>
<feOffset dx="1.904" dy="-1.904"/>
<feGaussianBlur stdDeviation="1.904"/>
<feColorMatrix type="matrix" values="0 0 0 0 0.654902 0 0 0 0 0.941176 0 0 0 0 0.458824 0 0 0 0.2 0"/>
<feBlend mode="normal" in2="BackgroundImageFix" result="effect1_dropShadow_195_184"/>
<feBlend mode="normal" in="SourceGraphic" in2="effect1_dropShadow_195_184" result="shape"/>
</filter>
</defs>
</svg>
