<svg width="19" height="13" viewBox="0 0 19 13" fill="none" xmlns="http://www.w3.org/2000/svg">
<path d="M16.378 7.41459C15.9215 5.63898 14.8246 4.09484 13.2984 3.07909H17.8329C17.996 3.07909 18.1524 3.01432 18.2677 2.89901C18.383 2.7837 18.4478 2.62731 18.4478 2.46424C18.4478 2.30117 18.383 2.14478 18.2677 2.02947C18.1524 1.91416 17.996 1.84939 17.8329 1.84939H11.6075C11.4721 1.32036 11.1644 0.851454 10.733 0.516603C10.3016 0.181752 9.77105 0 9.22496 0C8.67886 0 8.1483 0.181752 7.71691 0.516603C7.28552 0.851454 6.97785 1.32036 6.8424 1.84939H0.616995C0.453925 1.84939 0.297535 1.91416 0.182227 2.02947C0.0669197 2.14478 0.00214058 2.30117 0.00214058 2.46424C0.00214058 2.62731 0.0669197 2.7837 0.182227 2.89901C0.297535 3.01432 0.453925 3.07909 0.616995 3.07909H5.15155C3.62529 4.09484 2.52844 5.63898 2.07189 7.41459C1.48154 7.50878 0.9457 7.81479 0.564579 8.27538C0.183459 8.73597 -0.0168484 9.31961 0.00111091 9.91716C0.0190702 10.5147 0.254067 11.0853 0.66216 11.5221C1.07025 11.959 1.6235 12.2323 2.21845 12.2909C2.8134 12.3494 3.40931 12.1893 3.89477 11.8404C4.38022 11.4915 4.72197 10.9777 4.85612 10.3951C4.99027 9.81257 4.90762 9.20107 4.62364 8.675C4.33966 8.14893 3.87379 7.74431 3.31313 7.53679C3.57712 6.62659 4.04642 5.78909 4.68493 5.08877C5.32343 4.38843 6.11411 3.84394 6.99611 3.4972C7.19344 3.9227 7.50834 4.2829 7.90366 4.53533C8.29897 4.78775 8.75823 4.92187 9.22726 4.92187C9.6963 4.92187 10.1556 4.78775 10.5509 4.53533C10.9462 4.2829 11.2611 3.9227 11.4584 3.4972C12.3396 3.84452 13.1293 4.38928 13.767 5.08957C14.4047 5.78987 14.8733 6.62706 15.1368 7.53679C14.5759 7.7436 14.1095 8.14765 13.8248 8.67337C13.5402 9.19909 13.4568 9.81049 13.5902 10.3932C13.7236 10.976 14.0647 11.4902 14.5498 11.8397C15.0348 12.1892 15.6305 12.3501 16.2256 12.2922C16.8206 12.2344 17.3742 11.9618 17.7828 11.5254C18.1914 11.089 18.4271 10.5188 18.4458 9.92121C18.4645 9.32367 18.2649 8.73978 17.8843 8.27873C17.5037 7.81768 16.9683 7.51103 16.378 7.41612V7.41459ZM3.69127 9.84249C3.69127 10.0857 3.61915 10.3235 3.48402 10.5257C3.3489 10.7279 3.15685 10.8855 2.93215 10.9786C2.70745 11.0717 2.46019 11.096 2.22165 11.0486C1.98311 11.0011 1.764 10.884 1.59202 10.712C1.42004 10.54 1.30293 10.3209 1.25548 10.0824C1.20803 9.84386 1.23238 9.5966 1.32546 9.3719C1.41853 9.1472 1.57614 8.95515 1.77837 8.82003C1.98059 8.6849 2.21834 8.61278 2.46156 8.61278C2.7877 8.61278 3.10048 8.74234 3.33109 8.97296C3.56171 9.20357 3.69127 9.51635 3.69127 9.84249ZM9.22496 3.69395C8.98174 3.69395 8.74399 3.62183 8.54177 3.48671C8.33954 3.35158 8.18193 3.15953 8.08885 2.93483C7.99578 2.71013 7.97143 2.46288 8.01888 2.22434C8.06632 1.9858 8.18344 1.76668 8.35542 1.5947C8.5274 1.42273 8.74651 1.30561 8.98505 1.25816C9.22359 1.21071 9.47085 1.23506 9.69555 1.32814C9.92025 1.42121 10.1123 1.57883 10.2474 1.78105C10.3825 1.98328 10.4547 2.22103 10.4547 2.46424C10.4547 2.79038 10.3251 3.10316 10.0945 3.33378C9.86388 3.56439 9.5511 3.69395 9.22496 3.69395ZM15.9884 11.0722C15.7451 11.0722 15.5074 11.0001 15.3052 10.865C15.1029 10.7298 14.9453 10.5378 14.8523 10.3131C14.7592 10.0884 14.7348 9.84113 14.7823 9.60259C14.8297 9.36405 14.9468 9.14493 15.1188 8.97296C15.2908 8.80098 15.5099 8.68386 15.7484 8.63641C15.987 8.58896 16.2342 8.61332 16.4589 8.70639C16.6836 8.79946 16.8757 8.95708 17.0108 9.1593C17.1459 9.36153 17.2181 9.59928 17.2181 9.84249C17.2181 10.1686 17.0885 10.4814 16.8579 10.712C16.6273 10.9426 16.3145 11.0722 15.9884 11.0722Z" fill="#E8E9EA"/>
</svg>
