<svg width="19" height="19" viewBox="0 0 19 19" fill="none" xmlns="http://www.w3.org/2000/svg">
<path d="M9.38721 0C7.5306 0 5.71568 0.55055 4.17196 1.58203C2.62824 2.61351 1.42506 4.07959 0.714563 5.79488C0.00406733 7.51016 -0.181831 9.39762 0.180377 11.2186C0.542584 13.0395 1.43663 14.7121 2.74945 16.025C4.06228 17.3378 5.73492 18.2318 7.55586 18.594C9.3768 18.9562 11.2642 18.7703 12.9795 18.0599C14.6948 17.3494 16.1609 16.1462 17.1924 14.6025C18.2239 13.0587 18.7744 11.2438 18.7744 9.38721C18.7718 6.89837 17.7819 4.51222 16.0221 2.75235C14.2622 0.992478 11.876 0.00262825 9.38721 0ZM3.28553 4.30728L4.82629 5.84805C4.1884 6.66414 3.78296 7.63749 3.65289 8.66511H1.47759C1.62271 7.06236 2.25344 5.54206 3.28553 4.30728ZM1.47759 10.1093H3.6574C3.78748 11.1369 4.19291 12.1103 4.8308 12.9264L3.28553 14.4671C2.25344 13.2324 1.62271 11.712 1.47759 10.1093ZM8.66512 17.2968C7.06267 17.1525 5.5424 16.5227 4.30729 15.4916L5.84805 13.9508C6.66493 14.5861 7.63821 14.989 8.66512 15.117V17.2968ZM8.66512 3.6574C7.6375 3.78747 6.66415 4.1929 5.84805 4.8308L4.30729 3.28552C5.5424 2.25442 7.06267 1.62464 8.66512 1.48029V3.6574ZM17.2968 8.66511H15.117C14.9883 7.63794 14.5844 6.66463 13.9481 5.84805L15.4889 4.30728C16.521 5.54206 17.1517 7.06236 17.2968 8.66511ZM10.1093 1.47758C11.7117 1.62194 13.232 2.25171 14.4671 3.28281L12.9264 4.82629C12.1103 4.18839 11.1369 3.78296 10.1093 3.65289V1.47758ZM10.1093 17.2968V15.117C11.1365 14.9883 12.1098 14.5844 12.9264 13.9481L14.4671 15.4889C13.2324 16.521 11.712 17.1517 10.1093 17.2968ZM15.4889 14.4671L13.9481 12.9264C14.5844 12.1098 14.9883 11.1365 15.117 10.1093H17.2968C17.1517 11.712 16.521 13.2324 15.4889 14.4671Z" fill="#96EA63"/>
</svg>
