<svg width="111" height="18" viewBox="0 0 111 18" fill="none" xmlns="http://www.w3.org/2000/svg">
<path d="M10.3028 13.7924H11.0387L11.561 12.463L17.1159 0.237391H21.389L13.6025 16.8548H7.73896L0 0.237391H4.27304L9.78052 12.463L10.3028 13.7924Z" fill="white"/>
<path d="M23.2553 16.8548V0.237391H40.6086V3.34722H26.7687V7.02678H39.8489V10.1366H26.7687V13.745H40.7035V16.8548H23.2553Z" fill="white"/>
<path d="M49.8422 16.831V3.60835H42.1744V0.213652H61.1895V3.60835H53.5217V16.831H49.8422Z" fill="white"/>
<path d="M66.9482 3.48965V7.88139H75.6368C77.5596 7.88139 78.3905 7.35913 78.3905 5.5787C78.3905 3.96443 77.7495 3.48965 75.6368 3.48965H66.9482ZM82.6636 16.9972H78.1294L75.8267 12.2257C75.3756 11.2523 74.6635 10.8963 73.2866 10.8963H66.9482V16.8548H63.2687V0.237391H76.1353C80.4795 0.237391 82.4262 1.66174 82.4262 4.7953C82.4262 7.62026 80.8594 9.21078 77.8445 9.42443V9.7093C78.984 9.99417 79.6962 10.6589 80.3846 12.1307L82.6636 16.9972Z" fill="white"/>
<path d="M84.6432 16.8548V0.237391H88.3227V16.8548H84.6432Z" fill="white"/>
<path d="M106.941 10.1603H110.834C110.881 14.5283 107.321 17.0922 101.053 17.0922C94.1216 17.0922 90.4657 13.9586 90.4657 8.59357C90.4657 3.06235 94.3115 0 101.077 0C107.321 0 110.905 2.6113 110.905 7.02678H106.893C106.751 4.368 105.279 3.44217 101.101 3.44217C96.0919 3.44217 94.5014 4.62913 94.5014 8.59357C94.5014 11.9883 95.7596 13.65 101.006 13.65C105.184 13.65 106.941 12.5343 106.941 10.1603Z" fill="white"/>
</svg>
