<svg width="22" height="22" viewBox="0 0 22 22" fill="none" xmlns="http://www.w3.org/2000/svg">
<g clip-path="url(#clip0_195_34)">
<path d="M21.8556 6.39332C21.8556 4.45973 20.4334 2.90426 18.676 2.90426C16.2955 2.79297 13.8678 2.75 11.3867 2.75H10.6133C8.1383 2.75 5.70627 2.79297 3.3258 2.90469C1.57267 2.90469 0.150408 4.46875 0.150408 6.40234C0.0429859 7.9316 -0.00256097 9.46129 1.71558e-05 10.991C-0.00427972 12.5207 0.0444182 14.0518 0.146111 15.5843C0.146111 17.5179 1.56838 19.0863 3.3215 19.0863C5.82228 19.2023 8.38752 19.2539 10.9957 19.2496C13.6082 19.2582 16.1663 19.2037 18.6699 19.0863C20.4274 19.0863 21.8496 17.5179 21.8496 15.5843C21.9528 14.0504 22 12.5207 21.9957 10.9867C22.0055 9.45699 21.9588 7.92587 21.8556 6.39332ZM8.89455 15.2062V6.76285L15.125 10.9824L8.89455 15.2062Z" fill="#7A7B85"/>
</g>
<defs>
<clipPath id="clip0_195_34">
<rect width="22" height="22" fill="white"/>
</clipPath>
</defs>
</svg>
